# xmcd
#
# Track frame offsets:
#	150
#	17781
#	35186
#	57699
#	75367
#	94491
#	116176
#	133737
#	150903
#	169394
#
# Disc length: 2540 seconds
#
# Revision: 131075
# Processed by: cddbd v1.5.2PL0 Copyright (c) Steve Scherf et al.
# Submitted via: EZCDAudioConverter 8.0.2.1
#
DISCID=8909ea0a
DTITLE=Various Artist - Everlasting Love Song. Tình Ca Muôn Thuở
DYEAR=1991
DGENRE=Sub-Saharan Africa
TTITLE0=Don Hồ, Trizze Phương Trinh - Kỷ niệm - 
TTITLE1=Lucia Kim Chi - Em là áng mây
TTITLE2=Trizze Phương Trinh - Người tình trong tim tôi
TTITLE3=Phillip Nguyễn - Hạnh phúc xa bay
TTITLE4=Thúy Vi - Giữ sát tình em
TTITLE5=Ngọc Lan - Tiếng yêu em
TTITLE6=Henry Trúc - Vĩnh biệt tình anh
TTITLE7=Don Hồ, Trizze Phương Trinh - Khi tình yêu đã mất
TTITLE8=Hương Thơ - Khi ta bên nhau
TTITLE9=Tuyết Nhung - Sa mạc buồn
EXTD=
EXTT0=
EXTT1=
EXTT2=
EXTT3=
EXTT4=
EXTT5=
EXTT6=
EXTT7=
EXTT8=
EXTT9=
PLAYORDER=
